<svg width="227" height="24" viewBox="0 0 227 24" fill="none" xmlns="http://www.w3.org/2000/svg">
<path d="M122 12C122 13.6569 120.657 15 119 15C117.343 15 116 13.6569 116 12C116 10.3431 117.343 9 119 9C120.657 9 122 10.3431 122 12Z" stroke="#6C757D" stroke-width="2" stroke-linecap="round" stroke-linejoin="round"/>
<path d="M109.458 12C110.733 7.94288 114.523 5 119 5C123.478 5 127.268 7.94291 128.543 12C127.268 16.0571 123.478 19 119 19C114.523 19 110.733 16.0571 109.458 12Z" stroke="#6C757D" stroke-width="2" stroke-linecap="round" stroke-linejoin="round"/>
<path d="M170.232 5.23223L173.768 8.76777M171.732 3.73223C172.709 2.75592 174.291 2.75592 175.268 3.73223C176.244 4.70854 176.244 6.29146 175.268 7.26777L161.5 21.0355H158V17.4644L171.732 3.73223Z" stroke="#6C757D" stroke-width="2" stroke-linecap="round" stroke-linejoin="round"/>
<path d="M222 7L221.133 19.1425C221.058 20.1891 220.187 21 219.138 21H210.862C209.813 21 208.942 20.1891 208.867 19.1425L208 7M213 11V17M217 11V17M218 7V4C218 3.44772 217.552 3 217 3H213C212.448 3 212 3.44772 212 4V7M207 7H223" stroke="#6C757D" stroke-width="2" stroke-linecap="round" stroke-linejoin="round"/>
</svg>
